# AST/ASF file generated using VICON BodyLanguage
# -----------------------------------------------
:version 1.10
:name VICON
:units
  mass 1.0
  length 0.45
  angle deg
:documentation
   .ast/.asf automatically generated from VICON data using
   VICON BodyBuilder and BodyLanguage model FoxedUp or BRILLIANT.MOD
:root
   order TX TY TZ RX RY RZ
   axis XYZ
   position 0 0 0  
   orientation 0 0 0 
:bonedata
  begin
     id 1 
     name lhipjoint
     direction 0.645893 -0.654526 0.392961 
     length 2.38111 
     axis 0 0 0  XYZ
  end
  begin
     id 2 
     name lfemur
     direction 0.34202 -0.939693 0  
     length 6.6822  
     axis 0 0 20  XYZ
    dof rx ry rz
    limits (-160.0 20.0)
           (-70.0 70.0)
           (-60.0 70.0)
  end
  begin
     id 3 
     name ltibia
     direction 0.34202 -0.939693 0   
     length 6.93904   
     axis 0 0 20   XYZ
    dof rx
    limits (-10.0 170.0)
  end
  begin
     id 4 
     name lfoot
     direction 0.0694967 -0.190941 0.979138   
     length 2.13616   
     axis -90 7.62852e-016 20   XYZ
    dof rx rz
    limits (-45.0 90.0)
           (-70.0 20.0)
  end
  begin
     id 5 
     name ltoes
     direction 1.535e-011 -4.2202e-011 1   
     length 1.07536   
     axis -90 7.62852e-016 20   XYZ
    dof rx
    limits (-90.0 20.0)
  end
  begin
     id 6 
     name rhipjoint
     direction -0.700219 -0.612087 0.367481   
     length 2.54621  
     axis 0 0 0  XYZ 
  end
  begin
     id 7 
     name rfemur
     direction -0.34202 -0.939693 0   
     length 6.55353   
     axis 0 0 -20   XYZ
    dof rx ry rz
    limits (-160.0 20.0)
           (-70.0 70.0)
           (-70.0 60.0)
  end
  begin
     id 8 
     name rtibia
     direction -0.34202 -0.939693 0   
     length 6.8736   
     axis 0 0 -20   XYZ
    dof rx
    limits (-10.0 170.0)
 end
 begin
     id 9 
     name rfoot
     direction -0.0679995 -0.186827 0.980037   
     length 2.1218  
     axis -90 -7.62852e-016 -20   XYZ
    dof rx rz
    limits (-45.0 90.0)
           (-20.0 70.0)
  end
  begin
     id 10 
     name rtoes
     direction -1.53589e-011 -4.21772e-011 1   
     length 1.06864   
     axis -90 -7.62852e-016 -20   XYZ
    dof rx
    limits (-90.0 20.0)
  end
  begin
     id 11 
     name lowerback
     direction -0.0416607 0.996347 -0.0745409   
     length 2.12205   
     axis 0 0 0   XYZ
    dof rx ry rz
    limits (-20.0 45.0)
           (-30.0 30.0)
           (-30.0 30.0)
  end
  begin
     id 12 
     name upperback
     direction -0.000153993 0.999276 -0.0380568   
     length 2.12759   
     axis 0 0 0   XYZ
    dof rx ry rz
    limits (-20.0 45.0)
           (-30.0 30.0)
           (-30.0 30.0)
  end
  begin
     id 13 
     name thorax
     direction 0.0187671 0.999821 -0.00241421   
     length 2.13704   
     axis 0 0 0   XYZ
    dof rx ry rz
    limits (-20.0 45.0)
           (-30.0 30.0)
           (-30.0 30.0)
  end
  begin
     id 14 
     name lowerneck
     direction 0.0268157 0.964865 0.261374   
     length 1.65253   
     axis 0 0 0   XYZ
    dof rx ry rz
    limits (-20.0 45.0)
           (-30.0 30.0)
           (-30.0 30.0)
  end
  begin
     id 15 
     name upperneck
     direction 0.00263774 0.939908 -0.341418   
     length 1.72375   
     axis 0 0 0   XYZ
    dof rx ry rz
    limits (-20.0 45.0)
           (-30.0 30.0)
           (-30.0 30.0)
  end
  begin
     id 16
     name head
     direction -0.00526001 0.989001 -0.147818  
     length 1.74878  
     axis 0 0 0   XYZ
    dof rx ry rz
    limits (-20.0 45.0)
           (-30.0 30.0)
           (-30.0 30.0)
  end
  begin
     id 17 
     name lclavicle
     direction 0.881214 0.461162 -0.103884  
     length 3.25108  
     axis 0 0 0   XYZ
    dof ry rz
    limits (-20.0 10.0)
           (0.0 20.0)
  end
  begin
     id 18 
     name lhumerus
     direction 1 -4.4899e-011 3.38092e-027   
     length 4.87408   
     axis 180 -30 -90   XYZ
    dof rx ry rz
    limits (-60.0 90.0)
           (-90.0 90.0)
           (-90.0 90.0)
  end
  begin
     id 19
     name lradius
     direction 1 -4.48931e-011 9.96288e-027   
     length 2.76729   
     axis 180 -30 -90   XYZ
    dof rx
    limits (-10.0 170.0)
  end
  begin
     id 20
     name lwrist
     direction 1 -4.4896e-011 1.50617e-026   
     length 1.38364   
     axis -9.31234e-015 90 90   XYZ
    dof ry
    limits (-180.0 0.0)
 end
  begin
     id 21 
     name lhand
     direction 1 -4.49038e-011 3.01286e-026   
     length 0.98922   
     axis -1.92217e-014 90 90   XYZ
    dof rx rz
    limits (-90.0 90.0)
           (-45.0 45.0)
  end
  begin
     id 22 
     name lfingers
     direction 1 -4.49051e-011 6.02588e-026   
     length 0.797535   
     axis -3.84436e-014 90 90   XYZ
    dof rx
    limits (0.0 90.0)
  end
  begin
     id 23
     name lthumb
     direction 0.707107 -6.34901e-011 0.707107   
     length 1.14511   
     axis -90 45 2.19363e-014   XYZ
    dof rx rz
    limits (-45.0 45.0)
           (-45.0 45.0)
  end
  begin
     id 24 
     name rclavicle
     direction -0.893894 0.441652 -0.0767889   
     length 3.29361  
     axis 0 0 0   XYZ 
    dof ry rz
    limits (-10.0 20.0)
           (-20.0 0.0)
  end
  begin
     id 25 
     name rhumerus
     direction -1 -4.48945e-011 8.0491e-028  
     length 4.71404   
     axis 180 30 90   XYZ
    dof rx ry rz
    limits (-90.0 60.0)
           (-90.0 90.0)
           (-90.0 90.0)
  end
  begin
     id 26 
     name rradius
     direction -1 -4.48986e-011 9.27795e-027   
     length 2.83468   
     axis 180 30 90   XYZ
    dof rx
    limits (-10.0 170.0)
  end
  begin
     id 27 
     name rwrist
     direction -1 -4.49029e-011 1.5064e-026   
     length 1.41734   
     axis -9.31234e-015 -90 -90   XYZ
    dof ry
    limits (-180.0 0.0)
  end
  begin
     id 28
     name rhand
     direction -1 -4.48857e-011 3.01165e-026   
     length 0.868195   
     axis -1.92217e-014 -90 -90   XYZ
    dof rx rz
    limits (-90.0 90.0)
           (-45.0 45.0)
  end
  begin
     id 29
     name rfingers
     direction -1 -4.49048e-011 6.02585e-026   
     length 0.699961   
     axis -3.84436e-014 -90 -90   XYZ
    dof rx
    limits (0.0 90.0)
  end
  begin
     id 30
     name rthumb
     direction -0.707107 -6.34854e-011 0.707107   
     length 1.00501   
     axis -90 -45 -2.19363e-014   XYZ
    dof rx rz
    limits (-45.0 45.0)
           (-45.0 45.0)
  end
:hierarchy
  begin
    root lhipjoint rhipjoint lowerback
    lhipjoint lfemur
    lfemur ltibia
    ltibia lfoot
    lfoot ltoes
    rhipjoint rfemur
    rfemur rtibia
    rtibia rfoot
    rfoot rtoes
    lowerback upperback
    upperback thorax
    thorax lowerneck lclavicle rclavicle
    lowerneck upperneck
    upperneck head
    lclavicle lhumerus
    lhumerus lradius
    lradius lwrist
    lwrist lhand lthumb
    lhand lfingers
    rclavicle rhumerus
    rhumerus rradius
    rradius rwrist
    rwrist rhand rthumb
    rhand rfingers
  end

#!OML:ASF H:\ManfredObstacles\Project 1\Capture day 2\Session 1\male.ASF
:FULLY-SPECIFIED
:DEGREES
384
root -0.4501 16.0479 10.945 -176.842 7.16624 177.64
lowerback -3.54939 0.570756 -4.79152
upperback 2.18813 1.095 -0.716296
thorax 4.18458 0.437378 2.02393
lowerneck -33.773 1.02535 5.82486
upperneck 39.1888 0.980389 -1.9391
head 21.782 1.65167 -1.50563
rclavicle -6.95746e-015 1.64991e-014
rhumerus -37.35 -19.6298 -75.9391
rradius 29.2837
rwrist 30.6987
rhand -1.19395 -7.52829
rfingers 7.12502
rthumb 24.4463 -35.9884
lclavicle -6.95746e-015 1.64991e-014
lhumerus -26.8807 13.3251 80.4306
lradius 23.4412
lwrist -48.1283
lhand 2.61165 5.92984
lfingers 7.12502
lthumb 28.0894 33.8466
rfemur -20.7848 1.14214 19.26
rtibia 62.6814
rfoot -6.05405 -20.6839
rtoes -20.2924
lfemur -17.8933 -3.16283 -27.3379
ltibia 23.2352
lfoot 4.05986 13.4256
ltoes -3.07051
385
root -0.456164 16.0444 10.8918 -176.821 6.96365 177.646
lowerback -3.50845 0.498908 -4.87798
upperback 2.19295 1.00136 -0.70058
thorax 4.17169 0.388615 2.08162
lowerneck -33.7701 0.982088 5.75242
upperneck 39.1738 0.893852 -1.81833
head 21.7633 1.62617 -1.4527
rclavicle -1.04859e-014 2.38542e-015
rhumerus -37.4563 -19.7847 -75.8027
rradius 29.0261
rwrist 30.9674
rhand -1.1956 -7.44536
rfingers 7.12502
rthumb 24.4447 -35.9057
lclavicle -1.04859e-014 2.38542e-015
lhumerus -26.5502 12.6226 80.8298
lradius 23.905
lwrist -47.5375
lhand 2.53154 5.96351
lfingers 7.12502
lthumb 28.0128 33.8928
rfemur -21.1669 1.53296 19.3117
rtibia 61.9175
rfoot -6.78054 -21.143
rtoes -20.449
lfemur -17.8054 -3.18662 -27.4023
ltibia 23.4464
lfoot 3.75186 13.4705
ltoes -3.31077
386
root -0.461608 16.0402 10.8396 -176.795 6.75092 177.655
lowerback -3.47336 0.422609 -4.96549
upperback 2.20068 0.902142 -0.682586
thorax 4.16586 0.336794 2.14206
lowerneck -33.872 0.968832 5.70039
upperneck 39.1547 0.831755 -1.71832
head 21.7735 1.60565 -1.40904
rclavicle 7.25564e-015 -6.75868e-015
rhumerus -37.5495 -19.9291 -75.6767
rradius 28.7623
rwrist 31.2801
rhand -1.20384 -7.36368
rfingers 7.12502
rthumb 24.4368 -35.8251
lclavicle 7.25564e-015 -6.75868e-015
lhumerus -26.2387 11.9816 81.203
lradius 24.3631
lwrist -47.0195
lhand 2.43259 6.01887
lfingers 7.12502
lthumb 27.9182 33.9635
rfemur -21.5072 1.93294 19.3525
rtibia 61.046
rfoot -7.48982 -21.5371
rtoes -20.6258
lfemur -17.7381 -3.21402 -27.4587
ltibia 23.6809
lfoot 3.43631 13.5136
ltoes -3.5133
387
root -0.466434 16.0354 10.7882 -176.763 6.52697 177.668
lowerback -3.44101 0.344655 -5.04778
upperback 2.20731 0.800526 -0.665753
thorax 4.16105 0.283927 2.19831
lowerneck -33.99 0.959572 5.65635
upperneck 39.1458 0.771264 -1.61872
head 21.7958 1.58763 -1.36648
rclavicle 3.05631e-015 -1.39149e-014
rhumerus -37.6477 -20.0818 -75.5504
rradius 28.4997
rwrist 31.6274
rhand -1.20237 -7.27527
rfingers 7.12502
rthumb 24.4382 -35.7365
lclavicle 3.05631e-015 -1.39149e-014
lhumerus -25.9434 11.3955 81.545
lradius 24.7932
lwrist -46.5418
lhand 2.31052 6.06261
lfingers 7.12502
lthumb 27.8015 34.0262
rfemur -21.8064 2.34445 19.3836
rtibia 60.0695
rfoot -8.16827 -21.8672
rtoes -20.8452
lfemur -17.6917 -3.23739 -27.5066
ltibia 23.9409
lfoot 3.08517 13.5694
ltoes -3.61121
388
root -0.470459 16.03 10.7375 -176.725 6.28431 177.693
lowerback -3.41581 0.264819 -5.12123
upperback 2.21731 0.696204 -0.645229
thorax 4.1644 0.229603 2.25339
lowerneck -34.107 0.961935 5.64027
upperneck 39.1289 0.720553 -1.54024
head 21.8132 1.57375 -1.3374
rclavicle -1.80397e-014 2.16675e-014
rhumerus -37.7485 -20.2062 -75.4426
rradius 28.2697
rwrist 31.9496
rhand -1.19441 -7.22263
rfingers 7.12502
rthumb 24.4459 -35.6828
lclavicle -1.80397e-014 2.16675e-014
lhumerus -25.6504 10.8743 81.8659
lradius 25.1926
lwrist -46.0943
lhand 2.16858 6.10816
lfingers 7.12502
lthumb 27.6658 34.0936
rfemur -22.0598 2.76117 19.4131
rtibia 58.9909
rfoot -8.84647 -22.1373
rtoes -20.9852
lfemur -17.6675 -3.26719 -27.5368
ltibia 24.2271
lfoot 2.71997 13.6274
ltoes -3.67053
389
root -0.473831 16.024 10.6871 -176.679 6.02931 177.73
lowerback -3.3925 0.184335 -5.17786
upperback 2.21648 0.589642 -0.627833
thorax 4.15811 0.174981 2.29567
lowerneck -34.1931 0.973338 5.66033
upperneck 39.0814 0.669505 -1.48265
head 21.801 1.56042 -1.32599
rclavicle 1.00635e-014 8.15017e-015
rhumerus -37.8845 -20.3435 -75.3279
rradius 28.0552
rwrist 32.296
rhand -1.19261 -7.15465
rfingers 7.12502
rthumb 24.4476 -35.6146
lclavicle 1.00635e-014 8.15017e-015
lhumerus -25.3824 10.4189 82.1481
lradius 25.5513
lwrist -45.6906
lhand 1.99509 6.11854
lfingers 7.12502
lthumb 27.4999 34.1305
rfemur -22.2705 3.18799 19.4411
rtibia 57.8182
rfoot -9.5225 -22.3652
rtoes -21.1086
lfemur -17.6655 -3.29599 -27.5515
ltibia 24.5376
lfoot 2.31916 13.6963
ltoes -3.671
390
root -0.476565 16.0176 10.6369 -176.626 5.76523 177.775
lowerback -3.37879 0.104508 -5.22382
upperback 2.21437 0.483849 -0.611239
thorax 4.15618 0.120918 2.33129
lowerneck -34.234 0.962798 5.67038
upperneck 39.0292 0.597495 -1.42616
head 21.7715 1.53879 -1.31884
rclavicle -8.12532e-015 -4.17448e-015
rhumerus -38.0249 -20.4714 -75.2268
rradius 27.8702
rwrist 32.5759
rhand -1.16683 -7.12988
rfingers 7.12502
rthumb 24.4723 -35.5865
lclavicle -8.12532e-015 -4.17448e-015
lhumerus -25.1197 10.0153 82.4077
lradius 25.8803
lwrist -45.3361
lhand 1.81102 6.11344
lfingers 7.12502
lthumb 27.3238 34.1532
rfemur -22.4399 3.62595 19.4645
rtibia 56.559
rfoot -10.2016 -22.5537
rtoes -21.2361
lfemur -17.6798 -3.3229 -27.5544
ltibia 24.8628
lfoot 1.89459 13.7677
ltoes -3.62678
